<svg xmlns="http://www.w3.org/2000/svg" width="70" height="70" viewBox="0 0 70 70">
    <g fill="none" fill-rule="evenodd">
        <path fill="#FFF" d="M62.88 13.934l.098.06.097.061.08.08.072.097.055.097.042.115.025.104.007.12-.007.115-.212 1.435-.183 1.147-.032.16-.177.976-.228 1.14-.243 1.137-.263 1.123-.284 1.13-.309 1.122-.311 1.113-.347 1.105-.354 1.106-.377 1.098-.389 1.088-.422 1.082-.427 1.074-.45 1.074-.461 1.064-.481 1.05-.51 1.05-.516 1.03-.534 1.035-.554 1.016-9.052-7.6-2.509-2.107 18.311-15.376.177-.11.104-.042.11-.024.115-.01h.115l.11.027zM51.86 44.693l-1.316 1.86-.693.93-.71.914-.724.911-.735.884-.76.89-.765.864-.783.856-.797.838-.804.832-.832.814-.838.8-.85.79-.859.774-.88.758-.884.746-.908.724-.911.71-.925.704-.936.675h-.007l-1.83-1.355-.91-.706-.906-.728-.883-.745-.88-.76-.863-.772-.856-.783-.839-.808-.821-.814-.814-.825-.801-.838-.78-.856-.766-.87-.758-.88-.735-.898-.724-.9-.71-.922-.694-.93-.675-.935-.662-.95 10.638-8.943 2.51-2.107 1.687 1.42.194.146.201.135.208.125.218.097.226.087.235.065.232.049.243.041.322.014.236-.014.242-.027.24-.038.228-.066.232-.08.218-.097.208-.114.212-.128.257-.195 1.687-1.42 2.509 2.107zM7.861 14.055L26.17 29.431l-2.51 2.107-9.05 7.6-.694-1.276-.533-1.032-.506-1.04-.502-1.05-.475-1.06-.468-1.054-.444-1.074-.426-1.081-.402-1.081-.388-1.099-.378-1.098-.346-1.102-.34-1.106-.315-1.116-.298-1.119-.274-1.133-.267-1.13-.232-1.13-.225-1.136-.122-.697-.08-.45-.187-1.147-.162-1.144v-.211l.027-.115.031-.11.056-.097.062-.097.083-.08.097-.073.098-.055.104-.042.11-.024.115-.01h.121l.115.027.103.038.104.06zM55.93 10.753L34.95 28.374 13.964 10.753l1.154-.426 1.009-.347 1.008-.333 1.022-.311 1.026-.292 1.022-.28 1.033-.253 1.04-.24 1.04-.221 1.045-.201 1.05-.184 1.047-.163 1.057-.145 1.057-.121 1.057-.104 1.064-.09 1.063-.066 1.064-.045 1.057-.035 1.071-.007 1.227.017 1.064.032 1.064.048 1.063.073 1.057.09 1.057.104 1.057.128 1.057.146 1.053.17 1.047.187 1.043.197 1.04.222 1.04.239 1.032.27 1.022.274 1.026.298 1.015.312 1.009.333 1.008.353z"/>
        <path fill="#E74C3C" d="M23.66 31.538l2.509-2.107L7.86 14.055l-.09-.062-.103-.059-.104-.038-.115-.028h-.121l-.115.01-.11.025-.105.041-.096.056-.098.073-.083.08-.062.096-.056.097-.03.111-.029.115v.211l.163 1.144.187 1.147.08.45.121.697.226 1.136.232 1.13.267 1.13.273 1.133.299 1.12.315 1.115.34 1.106.346 1.102.378 1.098.388 1.099.402 1.08.426 1.082.444 1.074.468 1.054.475 1.06.502 1.05.506 1.04.533 1.032.693 1.276 9.052-7.6zm26.884 15.015l1.317-1.86-10.642-8.945-2.509-2.106-1.687 1.42-.257.194-.212.129-.208.114-.218.097-.232.08-.229.066-.239.038-.242.027-.236.014-.322-.014-.243-.041-.232-.049-.235-.066-.226-.086-.218-.097-.208-.125-.2-.135-.195-.146-1.688-1.42-2.508 2.106-10.64 8.945.663.949.675.936.693.928.711.922.724.901.735.898.758.88.766.87.78.856.8.838.815.825.821.814.839.808.856.783.863.773.88.759.883.745.905.727.911.707 1.83 1.355h.007l.936-.675.925-.704.911-.71.908-.725.884-.745.88-.759.86-.772.849-.79.838-.8.832-.815.804-.832.797-.839.783-.856.766-.862.759-.891.734-.884.725-.911.71-.915.693-.929zM34.95 28.374l20.98-17.621-.999-.37-1.008-.354-1.009-.333-1.015-.312-1.026-.298-1.022-.274-1.032-.27-1.04-.24-1.04-.22-1.043-.198-1.047-.188-1.053-.17-1.057-.145-1.057-.128-1.057-.104-1.057-.09-1.063-.073-1.064-.048-1.064-.032-1.227-.017-1.07.007-1.058.035-1.064.045-1.063.066-1.064.09-1.057.104-1.057.12-1.057.146-1.046.163-1.05.184-1.047.2-1.04.223-1.04.239-1.032.253-1.022.28-1.026.292-1.022.311-1.008.333-1.009.347-1.154.426L34.95 28.374zM63.356 14.67l-.008-.122-.024-.104-.041-.114-.056-.097-.072-.097-.08-.08-.097-.062-.097-.059-.114-.038-.112-.028h-.114l-.114.01-.11.025-.105.041-.177.111-18.31 15.376 2.508 2.107 9.052 7.6.554-1.016.534-1.036.516-1.03.51-1.05.481-1.05.461-1.063.45-1.074.427-1.075.423-1.08.388-1.089.377-1.098.354-1.106.347-1.105.311-1.113.309-1.122.284-1.13.264-1.123.242-1.136.228-1.14.178-.978.03-.16.184-1.146.211-1.435.008-.114zm6.452-.128v.37l-.028.371-.038.364-.29 1.975-.209 1.2-.218 1.191-.243 1.192-.267 1.189-.273 1.185-.299 1.178-.322 1.172-.34 1.167-.353 1.165-.37 1.154-.396 1.154-.402 1.147-.436 1.136-.444 1.13-.467 1.123-.486 1.112-.499 1.113-.516 1.098-.54 1.088-.548 1.085-.572 1.07-.59 1.068-.602 1.057-.624 1.04-.638 1.036-.65 1.022-.67 1.019-.693.998-.703.99-.718.978-.734.97-.749.96-.766.943-.78.929-.793.921-.814.912-.822.887-.838.88-.853.873-.863.846-.88.839-.894.831-.904.808-.919.8-.935.773-.946.766-.95.752-.967.734-.984.718-.99.703-.999.693-1.018.673-1.016.651-1.674-1.092-1.008-.675-1.002-.693-.984-.718-.97-.727-.956-.752-.953-.756-.933-.776-.922-.79-.91-.8-.902-.825-.88-.832-.87-.846-.862-.863-.84-.88-.831-.887-.814-.897-.797-.919-.79-.928-.766-.936-.76-.953-.737-.967-.728-.977-.7-.984-.696-1.002-.676-1.008-.662-1.015-.645-1.037-.627-1.04-.613-1.05-.59-1.063-.582-1.067-.554-1.082-.54-1.088-.534-1.098-.5-1.106L5.65 35.5l-.474-1.116-.454-1.13-.433-1.136-.42-1.137-.395-1.154-.381-1.154-.36-1.16-.347-1.165-.322-1.168-.309-1.182-.28-1.178-.274-1.185-.243-1.195-.232-1.193-.211-1.195-.194-1.203-.17-1.202-.056-.693-.01-.364.018-.374.03-.36.05-.364.076-.36.079-.368.1-.336.004-.01.128-.347.14-.34.158-.34.17-.322.194-.315.201-.295.226-.301.235-.28.25-.268.267-.26.273-.242.292-.232.297-.208.305-.205.326-.183 1.95-1.012 1.006-.492 1.009-.468 1.022-.45 1.025-.448L10.956 5l1.04-.405 1.05-.385 1.053-.364 1.067-.346 1.061-.33 1.074-.308 1.081-.29 1.082-.275 1.087-.26 1.089-.232 1.095-.218 1.098-.204 1.102-.174 1.106-.163 1.105-.145L28.26.78 29.37.676l1.112-.09L31.6.52l1.12-.045L33.83.44 34.95.433l2.2.042 1.113.045 1.116.066 1.112.08 1.112.107 1.113.121 1.106.146 1.105.159 1.102.18 1.098.198 1.095.221 1.1.233 1.076.26 1.089.273 1.074.291 1.07.305 1.075.333 1.053.347 1.058.36 1.05.388 1.046.395 1.032.423 1.033.437 1.015.447 1.016.478.998.485 1.001.506.985.52.596.36.298.211.29.226.274.242.268.26.249.264.243.284.218.287.208.309.194.315.176.322.16.333.139.336.131.35.017.056v.003l.084.288.093.36.07.357.058.364.032.37.017.365z"/>
        <path fill="#000" d="M68.54 12.474l-.2-.154-.21-.145-.22-.129-.225-.114-.234-.096-.242-.08-.242-.057-.25-.048-.248-.023-.26-.008-.25.008-.248.031-.25.04-.25.066-.243.08-.225.096-.233.122-.211.129-.353.259-1.911 1.606L43.723 29.43l-5.015 4.211-1.685 1.422-.257.193-.21.128-.211.114-.217.097-.233.08-.228.065-.24.04-.241.026-.237.014-.321-.014-.243-.04-.233-.048-.233-.066-.226-.088-.219-.097-.208-.123-.202-.136-.194-.145-1.685-1.422-5.016-4.211L7.861 14.057l-1.91-1.606-.203-.154-.21-.145-.217-.131-.225-.103-.242-.096-.242-.075-.242-.056-.25-.049-.252-.014-.256-.008-.25.014-.251.025-.25.057-.248.063-.237.082-.233.106-.225.11-.217.138-.202.145-.33.29 5.795 4.867.009.006L23.66 31.537l5.015 4.212 2.121 1.783.268.21.273.202.282.177.3.17.298.152.314.13.316.12.322.106.33.08.33.065.33.057.34.031.45.017.333-.017.336-.022.339-.04.33-.066.333-.08.322-.096.313-.114.316-.128.305-.146.29-.162.29-.17.283-.195.356-.281 2.121-1.783 5.015-4.212 16.692-14.014.005-.006 5.795-4.867z" opacity=".12"/>
    </g>
</svg>
