<svg xmlns="http://www.w3.org/2000/svg" width="117" height="122" viewBox="0 0 117 122">
    <g fill="none" fill-rule="evenodd" stroke="#E74C3C" stroke-width="2">
        <g transform="translate(1 17)">
            <circle cx="31.5" cy="31.5" r="31.5" fill="#FFF"/>
            <circle cx="31.5" cy="31.5" r="28.269" fill="#FFF"/>
            <path fill="#F9D4D0" fill-rule="nonzero" d="M44.149 31.223c-.883-1.14-2.215-1.924-3.997-2.35 2.269-1.155 3.266-3.117 2.992-5.886-.091-1.004-.37-1.874-.834-2.611a5.23 5.23 0 0 0-1.884-1.78 10.38 10.38 0 0 0-2.581-1.026c-.929-.236-1.995-.407-3.198-.513v-5.75H31.13v5.59c-.609 0-1.538.015-2.786.046v-5.635h-3.517v5.749c-.503.015-1.241.023-2.216.023l-4.842-.023v3.741h2.535c1.157 0 1.835.518 2.033 1.552v6.547c.152 0 .274.008.366.023h-.366v9.171c-.122.775-.563 1.164-1.325 1.164h-2.534l-.709 4.175h4.568c.29 0 .708.003 1.257.01.548.008.959.012 1.233.012v5.817h3.518V43.52c.639.016 1.568.023 2.786.023v5.726h3.517v-5.817a27.373 27.373 0 0 0 3.323-.342c.967-.168 1.892-.43 2.775-.788.883-.357 1.621-.802 2.215-1.334.594-.532 1.084-1.21 1.473-2.03.388-.822.636-1.773.742-2.853.199-2.113-.144-3.74-1.027-4.882zM28.412 21.05a169.037 169.037 0 0 0 2.136-.035c.327-.007.769.012 1.325.057.556.046 1.024.107 1.404.183.38.076.8.201 1.256.376.458.175.823.388 1.096.639.275.25.507.57.697.958.19.388.286.833.286 1.334 0 .426-.069.814-.206 1.164-.136.35-.342.643-.616.879a6.247 6.247 0 0 1-.845.616c-.29.174-.66.315-1.108.422-.45.106-.841.19-1.176.25-.335.061-.754.103-1.256.126-.503.023-.883.038-1.142.046-.26.007-.613.007-1.062 0-.45-.008-.712-.012-.788-.012v-7.004zm9.605 15.535c-.145.35-.332.655-.56.914-.228.258-.53.486-.902.683a7.742 7.742 0 0 1-1.085.48 8.74 8.74 0 0 1-1.267.32c-.496.09-.93.155-1.303.193-.373.038-.818.068-1.336.091-.517.023-.921.034-1.21.034-.29 0-.655-.004-1.097-.011-.441-.007-.723-.011-.845-.011v-7.711c.122 0 .484-.008 1.085-.023a59.668 59.668 0 0 1 1.473-.023c.38 0 .906.023 1.577.069.67.045 1.233.113 1.69.204.456.092.955.232 1.496.423.54.19.978.421 1.313.695.335.274.617.624.845 1.05.229.425.343.912.343 1.46 0 .426-.072.813-.217 1.163z"/>
        </g>
        <g transform="translate(45 1)">
            <circle cx="31.5" cy="31.5" r="31.5" fill="#FFF"/>
            <circle cx="31.5" cy="31.5" r="28.269" fill="#FFF"/>
            <path fill="#F9D4D0" fill-rule="nonzero" d="M44.149 31.223c-.883-1.14-2.215-1.924-3.997-2.35 2.269-1.155 3.266-3.117 2.992-5.886-.091-1.004-.37-1.874-.834-2.611a5.23 5.23 0 0 0-1.884-1.78 10.38 10.38 0 0 0-2.581-1.026c-.929-.236-1.995-.407-3.198-.513v-5.75H31.13v5.59c-.609 0-1.538.015-2.786.046v-5.635h-3.517v5.749c-.503.015-1.241.023-2.216.023l-4.842-.023v3.741h2.535c1.157 0 1.835.518 2.033 1.552v6.547c.152 0 .274.008.366.023h-.366v9.171c-.122.775-.563 1.164-1.325 1.164h-2.534l-.709 4.175h4.568c.29 0 .708.003 1.257.01.548.008.959.012 1.233.012v5.817h3.518V43.52c.639.016 1.568.023 2.786.023v5.726h3.517v-5.817a27.373 27.373 0 0 0 3.323-.342c.967-.168 1.892-.43 2.775-.788.883-.357 1.621-.802 2.215-1.334.594-.532 1.084-1.21 1.473-2.03.388-.822.636-1.773.742-2.853.199-2.113-.144-3.74-1.027-4.882zM28.412 21.05a169.037 169.037 0 0 0 2.136-.035c.327-.007.769.012 1.325.057.556.046 1.024.107 1.404.183.38.076.8.201 1.256.376.458.175.823.388 1.096.639.275.25.507.57.697.958.19.388.286.833.286 1.334 0 .426-.069.814-.206 1.164-.136.35-.342.643-.616.879a6.247 6.247 0 0 1-.845.616c-.29.174-.66.315-1.108.422-.45.106-.841.19-1.176.25-.335.061-.754.103-1.256.126-.503.023-.883.038-1.142.046-.26.007-.613.007-1.062 0-.45-.008-.712-.012-.788-.012v-7.004zm9.605 15.535c-.145.35-.332.655-.56.914-.228.258-.53.486-.902.683a7.742 7.742 0 0 1-1.085.48 8.74 8.74 0 0 1-1.267.32c-.496.09-.93.155-1.303.193-.373.038-.818.068-1.336.091-.517.023-.921.034-1.21.034-.29 0-.655-.004-1.097-.011-.441-.007-.723-.011-.845-.011v-7.711c.122 0 .484-.008 1.085-.023a59.668 59.668 0 0 1 1.473-.023c.38 0 .906.023 1.577.069.67.045 1.233.113 1.69.204.456.092.955.232 1.496.423.54.19.978.421 1.313.695.335.274.617.624.845 1.05.229.425.343.912.343 1.46 0 .426-.072.813-.217 1.163z"/>
        </g>
        <g fill-rule="nonzero">
            <path fill="#F9D4D0" d="M105.648 51H26.374a5.367 5.367 0 0 0-4.194 2.003 5.32 5.32 0 0 0-.987 1.928A5.479 5.479 0 0 0 21 56.326v59.348c0 2.94 2.403 5.326 5.363 5.326h79.274c2.96 0 5.363-2.386 5.363-5.326v-14.861H79.177c-5.03 0-9.117-4.059-9.117-9.055V79.912c0-2.45.986-4.677 2.585-6.307a9.049 9.049 0 0 1 5.438-2.673 9.123 9.123 0 0 1 1.083-.064H111V56.326c.01-2.94-2.392-5.326-5.352-5.326z"/>
            <path d="M114.28 76.364A5.285 5.285 0 0 0 110.725 75H79.275C76.363 75 74 77.332 74 80.206V91.794C74 94.668 76.363 97 79.275 97h31.45c.601 0 1.171-.104 1.71-.281a5.13 5.13 0 0 0 1.845-1.083 5.158 5.158 0 0 0 1.72-3.842V80.206c0-1.52-.665-2.895-1.72-3.842zM91.23 86.823c0 1.367-1.267 2.477-2.829 2.477h-1.879c-1.562 0-2.83-1.11-2.83-2.477v-1.646c0-.792.42-1.496 1.087-1.942a3.124 3.124 0 0 1 1.743-.535h1.879c1.562 0 2.83 1.11 2.83 2.477v1.646z"/>
        </g>
    </g>
</svg>
