<svg xmlns="http://www.w3.org/2000/svg" width="122" height="107" viewBox="0 0 122 107">
    <g fill="none" fill-rule="evenodd" stroke="#E74C3C" stroke-width="2">
        <g transform="translate(43 1)">
            <circle cx="39" cy="39" r="35" fill="#F9D4D0"/>
            <path fill="#FFF" fill-rule="nonzero" d="M54.66 38.657c-1.093-1.412-2.742-2.382-4.948-2.909 2.81-1.43 4.044-3.86 3.705-7.288-.114-1.242-.458-2.32-1.033-3.233a6.475 6.475 0 0 0-2.333-2.202c-.98-.556-2.046-.98-3.196-1.272-1.15-.292-2.47-.503-3.959-.635V14h-4.354v6.92c-.754 0-1.904.019-3.45.057V14h-4.354v7.118c-.623.019-1.537.028-2.743.028L22 21.118v4.632h3.139c1.432 0 2.271.64 2.516 1.92v8.108c.189 0 .34.01.453.028h-.453V47.16c-.15.96-.697 1.44-1.64 1.44h-3.138L22 53.77h5.656c.358 0 .876.005 1.555.013.679.01 1.187.015 1.527.015V61h4.355v-7.118c.792.02 1.942.029 3.45.029V61h4.354v-7.202c1.547-.076 2.918-.216 4.114-.424a16.758 16.758 0 0 0 3.436-.975c1.093-.442 2.007-.993 2.743-1.652.735-.659 1.342-1.497 1.824-2.514.48-1.017.787-2.194.918-3.531.246-2.617-.178-4.632-1.271-6.045zM35.178 26.06a209.286 209.286 0 0 0 2.644-.043c.406-.009.952.015 1.64.071a15.62 15.62 0 0 1 1.74.226c.47.094.99.25 1.555.466.566.216 1.018.48 1.357.79.34.311.627.707.862 1.187.236.48.354 1.031.354 1.652 0 .528-.085 1.008-.254 1.441-.17.433-.425.796-.764 1.088a7.734 7.734 0 0 1-1.046.763c-.358.216-.816.39-1.372.522a28.31 28.31 0 0 1-1.455.31c-.415.076-.934.128-1.556.156-.622.028-1.093.047-1.414.057-.32.009-.759.009-1.315 0-.556-.01-.881-.015-.976-.015V26.06zm11.891 19.235c-.18.433-.41.81-.692 1.13-.283.32-.656.603-1.118.847-.461.245-.91.443-1.343.593a10.82 10.82 0 0 1-1.569.396c-.613.113-1.15.193-1.613.24-.461.047-1.012.085-1.654.113-.64.028-1.14.042-1.498.042-.358 0-.81-.005-1.358-.014a91.34 91.34 0 0 0-1.046-.013V39.08c.15 0 .598-.009 1.343-.028a73.875 73.875 0 0 1 1.824-.028c.471 0 1.122.028 1.952.085.829.056 1.526.14 2.092.253a13.77 13.77 0 0 1 1.852.523c.67.235 1.212.522 1.626.861.415.34.764.772 1.046 1.3.284.527.425 1.13.425 1.807 0 .528-.09 1.008-.269 1.441z"/>
            <circle cx="39" cy="39" r="39"/>
        </g>
        <g transform="translate(1 28)">
            <circle cx="39" cy="39" r="39" fill="#FFF"/>
            <circle cx="39" cy="39" r="35" fill="#F9D4D0"/>
            <path fill="#FFF" fill-rule="nonzero" d="M54.66 38.657c-1.093-1.412-2.742-2.382-4.948-2.909 2.81-1.43 4.044-3.86 3.705-7.288-.114-1.242-.458-2.32-1.033-3.233a6.475 6.475 0 0 0-2.333-2.202c-.98-.556-2.046-.98-3.196-1.272-1.15-.292-2.47-.503-3.959-.635V14h-4.354v6.92c-.754 0-1.904.019-3.45.057V14h-4.354v7.118c-.623.019-1.537.028-2.743.028L22 21.118v4.632h3.139c1.432 0 2.271.64 2.516 1.92v8.108c.189 0 .34.01.453.028h-.453V47.16c-.15.96-.697 1.44-1.64 1.44h-3.138L22 53.77h5.656c.358 0 .876.005 1.555.013.679.01 1.187.015 1.527.015V61h4.355v-7.118c.792.02 1.942.029 3.45.029V61h4.354v-7.202c1.547-.076 2.918-.216 4.114-.424a16.758 16.758 0 0 0 3.436-.975c1.093-.442 2.007-.993 2.743-1.652.735-.659 1.342-1.497 1.824-2.514.48-1.017.787-2.194.918-3.531.246-2.617-.178-4.632-1.271-6.045zM35.178 26.06a209.286 209.286 0 0 0 2.644-.043c.406-.009.952.015 1.64.071a15.62 15.62 0 0 1 1.74.226c.47.094.99.25 1.555.466.566.216 1.018.48 1.357.79.34.311.627.707.862 1.187.236.48.354 1.031.354 1.652 0 .528-.085 1.008-.254 1.441-.17.433-.425.796-.764 1.088a7.734 7.734 0 0 1-1.046.763c-.358.216-.816.39-1.372.522a28.31 28.31 0 0 1-1.455.31c-.415.076-.934.128-1.556.156-.622.028-1.093.047-1.414.057-.32.009-.759.009-1.315 0-.556-.01-.881-.015-.976-.015V26.06zm11.891 19.235c-.18.433-.41.81-.692 1.13-.283.32-.656.603-1.118.847-.461.245-.91.443-1.343.593a10.82 10.82 0 0 1-1.569.396c-.613.113-1.15.193-1.613.24-.461.047-1.012.085-1.654.113-.64.028-1.14.042-1.498.042-.358 0-.81-.005-1.358-.014a91.34 91.34 0 0 0-1.046-.013V39.08c.15 0 .598-.009 1.343-.028a73.875 73.875 0 0 1 1.824-.028c.471 0 1.122.028 1.952.085.829.056 1.526.14 2.092.253a13.77 13.77 0 0 1 1.852.523c.67.235 1.212.522 1.626.861.415.34.764.772 1.046 1.3.284.527.425 1.13.425 1.807 0 .528-.09 1.008-.269 1.441z"/>
        </g>
    </g>
</svg>
